<svg
  id="Layer_1"
  data-name="Layer 1"
  xmlns="http://www.w3.org/2000/svg"
  viewBox="0 0 329.18 372.02"
>
  <defs>
    <linearGradient id="logoGradient" x1="0%" y1="0%" x2="100%" y2="100%">
      <stop offset="0%" style="stop-color:#3b82f6;stop-opacity:1" />
      <stop offset="50%" style="stop-color:#2c6ee8;stop-opacity:1" />
      <stop offset="100%" style="stop-color:#2563eb;stop-opacity:1" />
    </linearGradient>
  </defs>
  <path
    fill="url(#logoGradient)"
    fill-rule="evenodd"
    d="M111,242.83c-.01-24.57-.04-49.15-.02-73.72,0-5.04,2.6-8.44,7.87-10.31,16.79-5.96,33.58-11.91,50.4-17.78,33.06-11.55,65.93-23.65,99.1-34.89,16.3-5.52,32.43-11.51,48.66-17.21,7.6-2.67,12.15.57,12.15,8.59.02,49.05,0,98.09,0,147.14-1.7-.31-1.06-1.68-1.2-2.68-.1-.76.24-1.79-.83-2.05-1.95-.48-3.99-1.33-5.9-1.15-6.13.59-12.16-.22-18.21-.84-.74-.08-1.77-.33-1.6-1.04.54-2.29-.92-1.96-2.24-2.01-1.56-.05-2.79.15-3.01,2.13-.13,1.14-.84,2.21-2.26,1.85-6.06-1.53-12.15-.84-18.24-.32-.82.07-1.55-.37-2.3-.55-4.2-.99-8.13.84-12.19,1.41-.24.03-.52.37-.62.63-1.09,2.74-1.96,1.37-2.99-.08-.76-1.06-1.7-1.69-3.16-2.04-4.79-1.12-9.5,3.77-14.23.07-2.59,1.22-5.17-.1-7.76-.08-9.81.05-19.51,2.06-29.43.88-3.45-.41-7.2.48-10.75-.49-1.62-.45-3.4-.76-4.8-.24-4.3,1.58-8.56.68-12.88.58-4.26-.1-8.52-.14-12.84.35-5.22.6-10.69,1.5-15.89-.94-1.01-.48-2.38-.15-3.57.33-.58.23-1.4.49-1.75-.49.15-.16.25-.38.41-.42,1.71-.52,2.48-1.65,2.33-3.43-.05-.62-.04-1.38-.81-1.42-1.42-.07-1.95,1.3-2.88,2.03-.16.12-.27.37-.44.41-2.29.59-2.84,4.03-5.06,3.86-2.38-.18-5.14.49-7.14-.75-3.48-2.14-6.15-.05-9.06.96-1.69.58-1.55,1.63-.27,2.68,1.04.86,2.14.94,3.4.5.56-.19,1.26-.06,1.38.76.06.44-.2.88-.64.86-1.86-.08-4.32.59-5.4-.79-1.97-2.52-3.45-2.33-5.35-.29,1.9-2.04,3.38-2.22,5.35.29,1.08,1.38,3.54.71,5.4.79.44.02.7-.42.64-.86-.12-.82-.82-.95-1.38-.76-1.26.43-2.36.36-3.4-.5-1.27-1.05-1.42-2.1.27-2.68,2.91-1,5.58-3.1,9.06-.96,2.01,1.23,4.76.56,7.14.75,2.22.17,2.77-3.26,5.06-3.86.17-.04.28-.29.44-.41.93-.73,1.46-2.1,2.88-2.03.77.04.76.8.81,1.42.16,1.78-.62,2.91-2.33,3.43-.16.05-.26.27-.41.42.35.99,1.17.73,1.75.49,1.19-.47,2.56-.8,3.57-.33,5.19,2.44,10.67,1.54,15.89.94,4.32-.49,8.57-.45,12.84-.35,4.32.1,8.58,1,12.88-.58,1.39-.51,3.18-.2,4.8.24,3.55.98,7.3.09,10.75.49,9.92,1.18,19.63-.84,29.43-.88,2.59-.01,5.17,1.3,7.76.08,4.73,3.7,9.44-1.19,14.23-.07,1.47.34,2.41.98,3.16,2.04,1.03,1.44,1.9,2.81,2.99.08.1-.26.38-.6.62-.63,4.06-.57,7.99-2.39,12.19-1.41.76.18,1.48.62,2.3.55,6.09-.52,12.18-1.2,18.24.32,1.42.36,2.13-.71,2.26-1.85.22-1.98,1.45-2.18,3.01-2.13,1.32.04,2.78-.28,2.24,2.01-.17.71.86.97,1.6,1.04,6.05.62,12.07,1.42,18.21.84,1.92-.18,3.95.66,5.9,1.15,1.07.27.72,1.29.83,2.05.14,1.01-.5,2.37,1.2,2.68,0,15.43.02,30.87,0,46.3,0,5.09-2.08,8.03-6.9,9.91-10.26,3.98-20.75,7.32-31.16,10.88-14.41,4.94-28.75,10.07-43.1,15.17-15.98,5.68-31.92,11.44-47.9,17.12-19.08,6.78-38.18,13.53-57.27,20.27-6.87,2.42-13.75,4.83-20.66,7.13-5.89,1.96-10.52-1.14-11.2-7.36-.05-.5-.02-1.01-.02-1.52,0-32.39.02-64.78.03-97.17,1.69-1.66,1.69-4.45,0-6.11,0-2.64,0-5.27,0-7.91.31-.16.83-.27.88-.49.15-.63-.44-.65-.88-.75,0-2.43,0-4.86,0-7.3,1.69,1.67,1.69,4.45,0,6.11,0-2.04,0-4.07,0-6.11,.44.1,1.02.11.88.75-.05.22-.57.33-.88.49,0-.41,0-.82,0-1.24ZM146.63,236.01c.7-.04,1.26-.35,1.28-1.01.02-.92-.35-1.82-1.23-2.17-.84-.34-.96.45-.94,1.03.03.81-.37,1.86.89,2.15,-1.26-.29-.87-1.34-.89-2.15-.02-.58.1-1.37.94-1.03.88.35,1.26,1.26,1.23,2.17-.02.66-.58.97-1.28,1.01ZM288.62,228.81c-.48.06-1.27-.06-1.22.79.04.65.69.94,1.34.97.63.03,1.3-.08,1.29-.88,0-.79-.69-.86-1.41-.89,.72.02,1.4.09,1.41.89,0,.8-.65.91-1.29.88-.64-.03-1.29-.32-1.34-.97-.06-.86.74-.74,1.22-.79ZM296.42,233.42c.63.04.96-.1.96-.61,0-.43-.17-.79-.65-.83-.41-.04-.87.04-.8.58.05.33.35.63.49.86,-.14-.23-.45-.53-.49-.86-.07-.53.39-.61.8-.58.48.04.65.41.65.83,0,.51-.33.65-.96.61ZM132.8,230.03c-.32-.23-.52-.48-.73-.49-.23,0-.63.16-.68.33-.14.48.25.67.65.64.22-.02.42-.26.76-.48,-.34.22-.54.46-.76.48-.4.04-.79-.15-.65-.64.05-.17.45-.34.68-.33.21,0,.41.26.73.49ZM189.2,234.28c-.21.23-.51.42-.51.6,0,.18.31.47.51.49.38.05.81-.09.68-.6-.05-.19-.4-.3-.68-.49,.28.19.64.31.68.49.13.51-.3.66-.68.6-.2-.03-.5-.32-.51-.49,0-.18.3-.37.51-.6ZM.03,169.67c0-25.09-.02-50.19,0-75.28,0-5.65,2.97-8.72,8.46-10.17,4.66-1.23,9.11-3.27,13.67-4.9,12.4-4.43,24.79-8.87,37.21-13.25,29.03-10.23,58.07-20.41,87.11-30.63,17.37-6.12,34.73-12.26,52.09-18.41,3.9-1.38,7.62-3.37,11.89-3.4,3.68-.03,6.35,1.87,6.99,5.43.39,2.16.84,4.34.83,6.6-.06,19.1.06,38.2-.08,57.3-.06,7.91-2.05,9.73-8.75,12.24-8.9,3.34-18.02,6.11-26.98,9.29-12.3,4.37-24.47,9.15-36.85,13.28-7.18,2.4-14.32,4.92-21.47,7.41-13.27,4.62-26.47,9.45-39.71,14.18-3.11,1.11-4.73,3.03-4.65,6.6.1,4.24-.33,8.48-.53,12.73-1.49.1-2.11-.58-1.68-2.03.71-2.35-.53-2.86-2.52-2.86-4.12,0-8.18,1-12.35.41-2.77-.39-5.64-.6-8.41-.31-7.15.75-14.31.32-21.46.56-1.67.06-3.7-2.14-5.05.69-.19.4-.75.17-.77-.35-.09-1.68-1.36-1.04-2-.83-1.5.49-3,.49-4.51.45-2.51-.07-4.79.29-6.67,2.25-1.18,1.23-2.61,1.32-3.39-.51-.58-1.35-1.43-1.12-2.47-.84-4.19,1.13-5.79,3.46-6.25,7.78-.23,2.19.47,4.82-1.71,6.57,2.18-1.75,1.48-4.38,1.71-6.57.46-4.32,2.05-6.65,6.25-7.78,1.04-.28,1.89-.52,2.47.84.78,1.83,2.22,1.74,3.39.51,1.88-1.96,4.16-2.32,6.67-2.25,1.51.04,3.01.05,4.51-.45.64-.21,1.91-.84,2,.83.03.52.58.75.77.35,1.35-2.83,3.38-.64,5.05-.69,7.15-.24,14.31.19,21.46-.56,2.77-.29,5.64-.08,8.41.31,4.17.59,8.23-.4,12.35-.41,1.99,0,3.23.51,2.52,2.86-.44,1.45.18,2.12,1.68,2.03,1.22,34.51.32,69.02.55,103.54.02,2.41-.16,4.88-.68,7.23-.6,2.66-2.18,4.69-4.98,5.68-16.15,5.67-32.27,11.41-48.42,17.11-5.44,1.92-10.85,3.94-16.37,5.6-4.44,1.34-8.93-2-9.35-6.59-.05-.5-.02-1.02-.02-1.52,0-40.02.01-80.04.02-120.06ZM73.83,156.86c-.74.11-1.86-.19-1.7,1.09.12.92,1.07,1.21,1.87,1.24.8.04,1.85-.23,1.88-1.13.04-1.27-1.16-1.12-2.05-1.2,.89.08,2.09-.07,2.05,1.2-.03.9-1.08,1.17-1.88,1.13-.79-.04-1.75-.32-1.87-1.24-.16-1.28.96-.98,1.7-1.09Z"
  />
</svg>
